# xmcd
# 
# Track frame offsets:
#     182
#     18377
#     48690
#     63520
#     78275
#     99850
#     112635
#     140065
#     158732
#     174635
#     189697
#     208740
#     221257
#     238650
#     251817
#     266800
# 
# Disc length: 3799
# 
# Revision: 2
# Processed by: cddbd v1.5.2PL0 Copyright (c) Steve Scherf et al.
# Submitted via: fre:ac v1.1beta1pre3
# 
DISCID=e20ed510
DTITLE=Brownie McGhee and Sonny Terry - Brownie and Sonny - The Giants Of The Blues
DYEAR=0
DGENRE=Blues
TTITLE0=I'm A Stranger Here
TTITLE1=Everybody's Blue
TTITLE2=Walk On
TTITLE3=Down By The Riverside
TTITLE4=Blues For The Lowlands
TTITLE5=Right On That Share
TTITLE6=Blowin' the Fuses
TTITLE7=Lost John
TTITLE8=Chain Gang Blues
TTITLE9=It Takes A Chain Gang
TTITLE10=Betty And Dupree
TTITLE11=Stackhole
TTITLE12=Rock Me Momma
TTITLE13=Chain Gang Special
TTITLE14=Ppick A Bale Of Cotton
TTITLE15=Red River
EXTD=
EXTT0=
EXTT1=
EXTT2=
EXTT3=
EXTT4=
EXTT5=
EXTT6=
EXTT7=
EXTT8=
EXTT9=
EXTT10=
EXTT11=
EXTT12=
EXTT13=
EXTT14=
EXTT15=
PLAYORDER=
